<svg width="25" height="29" viewBox="0 0 25 29" fill="none" xmlns="http://www.w3.org/2000/svg">
<g clip-path="url(#clip0_5_2549)">
<path d="M13.8889 1.85205C13.5177 1.85205 13.2169 2.10277 13.2169 2.41205L13.2172 2.98213L12.3156 2.98325C11.432 2.98325 11.9509 3.99912 12.2695 4.09587L12.3156 4.10325L13.2172 4.10213L13.2169 4.65205C13.2169 4.9304 13.4606 5.16132 13.7799 5.20472L13.8889 5.21205C14.26 5.21205 14.5609 4.96133 14.5609 4.65205L14.5612 4.10213H18.8172L18.8169 4.65205C18.8169 4.9304 19.0606 5.16132 19.3798 5.20472L19.4889 5.21205C19.86 5.21205 20.1609 4.96133 20.1609 4.65205L20.1612 4.10213L21.8356 4.10325C22.1105 4.10325 22.3392 4.30135 22.3866 4.56259L22.3956 4.66325V7.45205H12.3156V8.57205H22.3956V13.6121C22.3956 13.9213 22.1449 14.1721 21.8356 14.1721H15.1303C14.821 14.1721 14.5703 14.4228 14.5703 14.7321C14.5703 15.0413 14.821 15.2921 15.1303 15.2921H21.8356C22.7635 15.2921 23.5156 14.5399 23.5156 13.6121V4.66325C23.5156 3.73541 22.7635 2.98325 21.8356 2.98325L20.1612 2.98213L20.1609 2.41205C20.1609 2.1337 19.9172 1.90278 19.5979 1.85938L19.4889 1.85205C19.1177 1.85205 18.8169 2.10277 18.8169 2.41205L18.8172 2.98213H14.5612L14.5609 2.41205C14.5609 2.1337 14.3172 1.90278 13.9979 1.85938L13.8889 1.85205Z" fill="#062949" stroke="#062949" stroke-width="0.5"/>
<path d="M5.87172 9.41287C7.7274 9.41287 9.23172 7.90855 9.23172 6.05287C9.23172 4.19719 7.7274 2.69287 5.87172 2.69287C4.01604 2.69287 2.51172 4.19719 2.51172 6.05287C2.51172 7.90855 4.01604 9.41287 5.87172 9.41287Z" stroke="#062949" stroke-width="1.5" stroke-linecap="round" stroke-linejoin="round"/>
<path fill-rule="evenodd" clip-rule="evenodd" d="M8.39203 27.8933L9.23203 19.4933H10.912V16.1333C10.912 13.3497 8.65555 11.0933 5.87203 11.0933C3.08852 11.0933 0.832031 13.3497 0.832031 16.1333V19.4933H2.51203L3.35203 27.8933H8.39203Z" stroke="#062949" stroke-width="1.5" stroke-linecap="round" stroke-linejoin="round"/>
</g>
<defs>
<clipPath id="clip0_5_2549">
<rect width="24.64" height="28" fill="white" transform="translate(0 0.731934)"/>
</clipPath>
</defs>
</svg>
