<svg width="30" height="30" viewBox="0 0 30 30" fill="none" xmlns="http://www.w3.org/2000/svg">
<path d="M1 28.9481C3.05256 29.2017 5.11014 28.5171 6.59977 27.085C7.67261 28.2711 9.19863 28.9481 10.7996 28.9481C12.4005 28.9481 13.9266 28.2711 14.9994 27.085C16.0723 28.2711 17.5983 28.9481 19.1992 28.9481C20.8002 28.9481 22.3262 28.2711 23.3991 27.085C24.8887 28.5171 26.9463 29.2017 28.9988 28.9481" stroke="#062949" stroke-width="1.5" stroke-linecap="round" stroke-linejoin="round"/>
<path d="M27.1414 25.2314C27.8875 24.5463 28.4917 23.7216 28.9197 22.8043C29.0477 22.5161 29.021 22.1828 28.8487 21.9185C28.6764 21.6543 28.3819 21.495 28.066 21.4951H1.93376C1.6179 21.495 1.32339 21.6543 1.15109 21.9185C0.978787 22.1828 0.952078 22.5161 1.08011 22.8043C1.59742 23.9015 2.35731 24.8672 3.30259 25.6289" stroke="#062949" stroke-width="1.5" stroke-linecap="round" stroke-linejoin="round"/>
<path d="M14.0663 21.4955V2.57431C14.0664 1.89553 13.6306 1.29311 12.985 1.07982C12.3395 0.866527 11.6296 1.09042 11.2241 1.63527L2.89285 14.4614C2.70477 14.7479 2.68943 15.1144 2.85293 15.4156C3.01642 15.7169 3.33236 15.9042 3.67557 15.9035L14.0638 15.8886" stroke="#062949" stroke-width="1.5" stroke-linecap="round" stroke-linejoin="round"/>
<path fill-rule="evenodd" clip-rule="evenodd" d="M19.5183 7.39492C19.2944 7.04696 18.8674 6.88804 18.4699 7.0047C18.0723 7.12135 17.7995 7.48564 17.7998 7.89922V17.7691H24.4897C24.8309 17.7684 25.1447 17.5822 25.3082 17.2832C25.4717 16.9842 25.4589 16.62 25.2749 16.3332L19.5183 7.39492Z" stroke="#062949" stroke-width="1.5" stroke-linecap="round" stroke-linejoin="round"/>
</svg>
