<svg width="216" height="50" viewBox="0 0 216 50" fill="none" xmlns="http://www.w3.org/2000/svg">
<rect width="216" height="50" fill="#1E1E1E"/>
<g clip-path="url(#clip0_1_2)">
<rect width="1440" height="9885" transform="translate(-178 -9357)" fill="#ECFBFF"/>
<rect x="-178" y="-68" width="1443" height="596" fill="#062949"/>
<path d="M13.4054 40.4353C10.9229 40.4353 8.82237 39.9962 7.10373 39.118C5.42328 38.2016 4.04836 36.9034 2.97898 35.2234C1.9096 33.5433 1.14576 31.5197 0.687458 29.1523C0.229153 26.7468 0 24.0359 0 21.0195C0 18.0794 0.229153 15.4066 0.687458 13.0011C1.14576 10.5575 1.89051 8.45743 2.9217 6.70103C3.99107 4.94463 5.38509 3.58916 7.10373 2.63459C8.82237 1.68003 10.8847 1.20275 13.2908 1.20275C15.4678 1.20275 17.301 1.56548 18.7905 2.29095C20.3182 3.01642 21.5212 4.02826 22.3997 5.32646C23.2781 6.62466 23.8701 8.13287 24.1756 9.85109C24.5193 11.5311 24.5766 13.3448 24.3475 15.2921L17.1292 16.2658C17.3201 14.3566 17.2437 12.7339 16.9 11.3975C16.5945 10.0611 16.098 9.06835 15.4105 8.41924C14.7612 7.73196 13.9592 7.38832 13.0044 7.38832C12.2024 7.38832 11.4767 7.65559 10.8275 8.19015C10.1782 8.68652 9.62441 9.46926 9.1661 10.5384C8.74599 11.6075 8.42136 12.963 8.1922 14.6048C7.96305 16.2467 7.84847 18.1749 7.84847 20.3895C7.84847 23.7495 8.05853 26.4414 8.47864 28.4651C8.93695 30.4887 9.56712 31.9588 10.3692 32.8751C11.2094 33.7533 12.1833 34.1924 13.2908 34.1924C14.5512 34.1924 15.5251 33.6961 16.2125 32.7033C16.9 31.7106 17.3583 30.3742 17.5875 28.6942C17.8548 27.0141 17.9121 25.1814 17.7593 23.1959L25.0349 24.1123C25.3023 26.5178 25.2832 28.7323 24.9776 30.756C24.6721 32.7415 24.0419 34.4597 23.0871 35.9107C22.1705 37.3616 20.9102 38.488 19.3061 39.2898C17.702 40.0535 15.7351 40.4353 13.4054 40.4353Z" fill="white"/>
<path d="M27.8447 39.6907V22.1077L27.7874 0H35.4068V6.30012C35.4068 7.14013 35.3686 8.13287 35.2922 9.27835C35.2158 10.4238 35.1012 11.6266 34.9484 12.8866C34.8339 14.1084 34.7002 15.3303 34.5474 16.5521C34.3947 17.7358 34.2419 18.8049 34.0891 19.7594H34.9484C35.254 17.0867 35.7314 14.9485 36.3807 13.3448C37.0681 11.7411 37.9274 10.5766 38.9586 9.85109C40.028 9.12562 41.2883 8.76289 42.7396 8.76289C45.2985 8.76289 47.1699 9.79381 48.3539 11.8557C49.576 13.8793 50.1871 17.0294 50.1871 21.3058V39.6907H42.3959V22.4513C42.3959 20.084 42.1668 18.3658 41.7085 17.2967C41.2883 16.2276 40.5627 15.693 39.5315 15.693C38.6149 15.693 37.8511 16.1321 37.24 17.0103C36.6671 17.8503 36.247 19.034 35.9796 20.5613C35.7123 22.0886 35.5786 23.8832 35.5786 25.945V39.6907H27.8447Z" fill="white"/>
<path d="M59.3416 40.378C58.043 40.378 56.8591 40.0916 55.7897 39.5189C54.7203 38.9462 53.861 38.0871 53.2117 36.9416C52.5625 35.7961 52.2378 34.3834 52.2378 32.7033C52.2378 31.0997 52.5052 29.7633 53.0399 28.6942C53.6127 27.5869 54.3766 26.6896 55.3314 26.0023C56.2862 25.2768 57.3365 24.685 58.4822 24.2268C59.628 23.7304 60.812 23.2913 62.0341 22.9095C63.1799 22.5277 64.0965 22.1649 64.7839 21.8213C65.5096 21.4777 66.0252 21.0577 66.3307 20.5613C66.6744 20.0649 66.8463 19.3967 66.8463 18.5567C66.8463 17.4112 66.579 16.5139 66.0443 15.8648C65.5478 15.1775 64.7839 14.8339 63.7527 14.8339C62.9889 14.8339 62.3396 15.063 61.805 15.5212C61.2703 15.9794 60.8692 16.6667 60.6019 17.583C60.3346 18.4612 60.2391 19.5876 60.3155 20.9622L53.0972 20.1604C53.059 18.3276 53.269 16.7048 53.7273 15.2921C54.1856 13.8793 54.8731 12.6957 55.7897 11.7411C56.7445 10.7484 57.9094 10.0038 59.2843 9.50745C60.6974 9.01107 62.3014 8.76289 64.0965 8.76289C66.5026 8.76289 68.4504 9.22108 69.9399 10.1375C71.4676 11.0157 72.5942 12.3711 73.3199 14.2039C74.0837 15.9985 74.4656 18.2703 74.4656 21.0195V28.2932C74.4656 29.4769 74.4847 30.7369 74.5229 32.0733C74.5611 33.3715 74.5993 34.6697 74.6375 35.9679C74.7139 37.2661 74.7903 38.5071 74.8666 39.6907H68.1066C67.9921 38.3925 67.8966 37.1134 67.8202 35.8534C67.782 34.5552 67.7438 33.2379 67.7056 31.9015H67.0182C66.7508 33.6961 66.2734 35.2425 65.586 36.5407C64.8985 37.8007 64.0201 38.7552 62.9507 39.4044C61.9195 40.0535 60.7165 40.378 59.3416 40.378ZM62.4351 34.1924C63.008 34.1924 63.5236 34.0588 63.9819 33.7915C64.4784 33.4861 64.9176 33.0851 65.2995 32.5888C65.6814 32.0542 65.987 31.4433 66.2161 30.756C66.4835 30.0687 66.6744 29.3433 66.789 28.5796V23.8832L68.3358 23.5968C67.9539 24.0932 67.4574 24.5132 66.8463 24.8568C66.2734 25.2005 65.6624 25.5059 65.0131 25.7732C64.3638 26.0405 63.7146 26.3268 63.0653 26.6323C62.416 26.8996 61.8431 27.2241 61.3466 27.606C60.8501 27.9496 60.43 28.4078 60.0863 28.9805C59.7808 29.5151 59.628 30.1833 59.628 30.9851C59.628 32.0924 59.8953 32.9133 60.43 33.4479C61.0029 33.9443 61.6713 34.1924 62.4351 34.1924Z" fill="white"/>
<path d="M77.8062 39.6907V23.3104L77.749 9.50745H84.3944L84.3371 20.7904H85.1964C85.311 17.8885 85.6738 15.5785 86.2849 13.8603C86.9342 12.142 87.7935 10.9011 88.8629 10.1375C89.9322 9.37381 91.1353 8.99198 92.472 8.99198C92.7393 8.99198 93.0067 9.01107 93.274 9.04926C93.5414 9.08744 93.8278 9.1638 94.1334 9.27835L93.7896 17.9267C93.4841 17.774 93.1404 17.6785 92.7584 17.6403C92.4147 17.564 92.071 17.5258 91.7273 17.5258C90.6197 17.5258 89.6076 17.8885 88.691 18.614C87.8126 19.3013 87.106 20.3513 86.5713 21.764C86.0366 23.1768 85.7502 24.9714 85.712 27.1478V39.6907H77.8062Z" fill="white"/>
<path d="M106.148 40.2062C103.284 40.2062 101.088 39.4044 99.5601 37.8007C98.0706 36.1588 97.3258 33.6388 97.3258 30.2406V15.5785H94.6333L94.6906 9.96563H95.8936C97.1922 9.92745 98.1088 9.64108 98.6435 9.10653C99.1782 8.57197 99.5219 7.69377 99.6747 6.47193L100.076 3.43643H104.831V9.50745H109.815V15.7503H104.831V28.9233C104.831 30.2978 105.079 31.3097 105.575 31.9588C106.072 32.6079 106.74 32.9324 107.58 32.9324C107.962 32.9324 108.344 32.8942 108.726 32.8179C109.146 32.7033 109.547 32.5315 109.929 32.3024V39.6334C109.242 39.8244 108.592 39.958 107.981 40.0344C107.37 40.1489 106.759 40.2062 106.148 40.2062Z" fill="white"/>
<path d="M123.049 40.4353C120.796 40.4353 118.905 40.0535 117.378 39.2898C115.85 38.5262 114.609 37.4761 113.654 36.1397C112.737 34.7652 112.069 33.1424 111.649 31.2715C111.267 29.4005 111.076 27.3578 111.076 25.1432C111.076 23.005 111.267 20.9622 111.649 19.0149C112.031 17.0676 112.661 15.3303 113.539 13.803C114.418 12.2375 115.602 11.0157 117.091 10.1375C118.581 9.22108 120.433 8.76289 122.648 8.76289C124.71 8.76289 126.467 9.18289 127.919 10.0229C129.37 10.8247 130.516 11.9702 131.356 13.4593C132.196 14.9103 132.75 16.6667 133.017 18.7285C133.285 20.7522 133.285 22.9668 133.017 25.3723L116.404 25.7732V21.8213L127.117 21.5349L125.914 23.8259C126.104 21.7258 126.085 20.0267 125.856 18.7285C125.627 17.3921 125.245 16.4185 124.71 15.8076C124.176 15.1966 123.488 14.8912 122.648 14.8912C121.693 14.8912 120.929 15.273 120.357 16.0367C119.784 16.7621 119.364 17.8312 119.096 19.244C118.829 20.6567 118.695 22.394 118.695 24.4559C118.695 27.9305 119.039 30.4887 119.726 32.1306C120.414 33.7724 121.502 34.5934 122.992 34.5934C123.641 34.5934 124.176 34.4597 124.596 34.1924C125.054 33.887 125.417 33.467 125.684 32.9324C125.952 32.3979 126.143 31.7679 126.257 31.0424C126.372 30.3169 126.41 29.5151 126.372 28.6369L133.361 29.3242C133.476 30.6224 133.399 31.9397 133.132 33.2761C132.864 34.5743 132.349 35.777 131.585 36.8843C130.821 37.9534 129.733 38.8125 128.32 39.4616C126.945 40.1107 125.188 40.4353 123.049 40.4353Z" fill="white"/>
<path d="M136.021 39.6907V23.3104L135.964 9.50745H142.609L142.552 20.7904H143.411C143.526 17.8885 143.888 15.5785 144.499 13.8603C145.149 12.142 146.008 10.9011 147.077 10.1375C148.147 9.37381 149.35 8.99198 150.687 8.99198C150.954 8.99198 151.221 9.01107 151.489 9.04926C151.756 9.08744 152.042 9.1638 152.348 9.27835L152.004 17.9267C151.699 17.774 151.355 17.6785 150.973 17.6403C150.629 17.564 150.286 17.5258 149.942 17.5258C148.834 17.5258 147.822 17.8885 146.906 18.614C146.027 19.3013 145.321 20.3513 144.786 21.764C144.251 23.1768 143.965 24.9714 143.927 27.1478V39.6907H136.021Z" fill="white"/>
<path d="M162.827 40.4353C157.843 40.4353 154.234 37.5716 154.234 31.9588C154.234 25.6014 158.988 23.5968 168.384 22.2222C172.222 21.7068 173.941 21.3631 173.941 18.9576C173.941 16.6094 172.337 14.6048 168.727 14.6048C165.405 14.6048 162.254 16.323 161.452 20.2176L154.978 18.2131C156.582 12.1993 161.509 8.99198 168.899 8.99198C177.206 8.99198 181.102 13.0011 181.102 21.8213V27.4341C181.102 31.3287 181.331 35.7961 181.789 39.6907H175.316C174.972 37.6289 174.743 35.1088 174.628 32.5315H173.712C172.107 36.8843 168.384 40.4353 162.827 40.4353ZM165.691 35.1088C168.67 35.1088 172.222 33.047 174.113 28.7514L174.055 24.7423C169.472 26.8041 161.223 25.4868 161.223 30.9851C161.223 33.5624 163.056 35.1088 165.691 35.1088Z" fill="white"/>
<path d="M199.386 50C189.59 50 185.294 47.8236 185.294 43.3562C185.294 39.8625 188.043 37.457 193.6 36.9416V35.7961C189.476 35.8534 187.299 34.9943 187.299 32.8179C187.299 30.756 189.246 29.1523 194.116 28.0641V26.9187C189.476 26.6896 186.726 23.7686 186.726 19.4158C186.726 13.6884 191.595 9.45017 200.647 9.45017H215.484V15.1775L206.089 13.803V15.063C210.787 15.8076 213.021 17.6403 213.021 20.9622C213.021 25.7159 208.323 28.9233 200.36 28.9233C199.329 28.9233 198.527 28.866 196.064 28.5796C194.402 29.7251 193.371 30.5842 193.371 31.3288C193.371 32.3597 195.434 32.646 197.21 32.646H205.173C208.209 32.646 216 32.8751 216 40.6071C216 47.1363 210.443 50 199.386 50ZM200.188 24.9714C204.199 24.9714 206.261 22.9095 206.261 19.874C206.261 16.6094 204.141 14.2612 200.131 14.2612C196.121 14.2612 193.887 16.5521 193.887 19.7594C193.887 22.795 196.064 24.9714 200.188 24.9714ZM200.017 44.1581C207.12 44.1581 209.641 43.0126 209.641 40.2062C209.641 36.827 205.917 36.827 204.256 36.827H197.21C193.6 37.3425 192.225 39.0034 192.225 40.8935C192.225 43.6426 195.09 44.1581 200.017 44.1581Z" fill="white"/>
</g>
<defs>
<clipPath id="clip0_1_2">
<rect width="1440" height="9885" fill="white" transform="translate(-178 -9357)"/>
</clipPath>
</defs>
</svg>
