<svg width="1440" height="1284" viewBox="0 0 1440 1284" fill="none" xmlns="http://www.w3.org/2000/svg">
<g opacity="0.05">
<path d="M-1327 649.348C-1176.45 602.176 -1261.28 573.497 -1110.72 526.324C-960.172 479.152 -875.349 507.831 -724.84 460.673C-574.332 413.514 -659.111 384.821 -508.559 337.649C-358.008 290.477 -273.185 319.156 -122.633 271.984C27.9191 224.811 -56.9039 196.132 93.6913 148.946C244.287 101.76 329.066 130.453 479.618 83.2808" stroke="#062949" stroke-width="1.2" stroke-miterlimit="10"/>
<path d="M359.86 1210.52C510.412 1163.35 425.589 1134.67 576.141 1087.49C726.693 1040.32 811.516 1069 962.025 1021.84C1112.53 974.683 1027.75 945.991 1178.31 898.818C1328.86 851.646 1413.68 880.325 1564.23 833.153C1714.78 785.981 1629.96 757.302 1780.56 710.116C1931.15 662.93 2015.93 691.623 2166.48 644.45" stroke="#062949" stroke-width="1.2" stroke-miterlimit="10"/>
<path d="M-696.914 852.107C-546.362 804.935 -631.185 776.256 -480.633 729.083C-330.081 681.911 -245.258 710.59 -94.7497 663.431C55.7589 616.273 -29.0208 587.58 121.531 540.408C272.083 493.235 356.906 521.915 507.458 474.742C658.01 427.57 573.187 398.891 723.782 351.705C874.377 304.519 959.157 333.212 1109.71 286.04" stroke="#062949" stroke-width="1.2" stroke-miterlimit="10"/>
<path d="M-159.571 1034.02C-9.0193 986.843 -93.8423 958.164 56.7096 910.991C207.261 863.819 292.084 892.498 442.593 845.34C593.102 798.181 508.322 769.488 658.874 722.316C809.426 675.144 894.249 703.823 1044.8 656.651C1195.35 609.478 1110.53 580.799 1261.12 533.613C1411.72 486.427 1496.5 515.12 1647.05 467.948" stroke="#062949" stroke-width="1.2" stroke-miterlimit="10"/>
<path d="M-1232.24 676.187C-1081.69 629.014 -1166.52 600.335 -1015.96 553.163C-865.412 505.991 -780.589 534.67 -630.08 487.511C-479.571 440.352 -564.351 411.66 -413.799 364.487C-263.247 317.315 -178.424 345.994 -27.8726 298.822C122.679 251.65 37.8563 222.97 188.451 175.785C339.047 128.599 423.826 157.291 574.378 110.119" stroke="#062949" stroke-width="1.2" stroke-miterlimit="10"/>
<path d="M83.1907 1123.63C233.743 1076.45 148.92 1047.77 299.471 1000.6C450.023 953.43 534.846 982.109 685.355 934.951C835.863 887.792 751.084 859.099 901.636 811.927C1052.19 764.755 1137.01 793.434 1287.56 746.262C1438.11 699.089 1353.29 670.41 1503.89 623.224C1654.48 576.038 1739.26 604.731 1889.81 557.559" stroke="#062949" stroke-width="1.2" stroke-miterlimit="10"/>
<path d="M-971.798 765.927C-821.246 718.754 -906.069 690.075 -755.518 642.903C-604.966 595.731 -520.143 624.41 -369.634 577.251C-219.126 530.093 -303.905 501.4 -153.353 454.228C-2.80154 407.055 82.0214 435.734 232.573 388.562C383.125 341.39 298.302 312.711 448.897 265.525C599.493 218.339 684.272 247.032 834.824 199.859" stroke="#062949" stroke-width="1.2" stroke-miterlimit="10"/>
<path d="M-436.24 947.125C-285.689 899.953 -370.512 871.274 -219.96 824.102C-69.4079 776.93 15.4151 805.609 165.924 758.45C316.432 711.291 231.653 682.599 382.204 635.426C532.756 588.254 617.579 616.933 768.131 569.761C918.683 522.589 833.86 493.909 984.455 446.724C1135.05 399.538 1219.83 428.23 1370.38 381.058" stroke="#062949" stroke-width="1.2" stroke-miterlimit="10"/>
<path d="M-1508.91 589.296C-1358.36 542.124 -1443.18 513.445 -1292.63 466.273C-1142.08 419.1 -1057.26 447.78 -906.749 400.621C-756.24 353.462 -841.02 324.769 -690.468 277.597C-539.916 230.425 -455.093 259.104 -304.541 211.932C-153.989 164.759 -238.812 136.08 -88.2171 88.8945C62.378 41.7086 147.158 70.4014 297.71 23.2291" stroke="#062949" stroke-width="1.2" stroke-miterlimit="10"/>
<path d="M408.87 1222.61C559.422 1175.43 474.599 1146.76 625.151 1099.58C775.703 1052.41 860.526 1081.09 1011.03 1033.93C1161.54 986.772 1076.76 958.08 1227.32 910.907C1377.87 863.735 1462.69 892.414 1613.24 845.242C1763.79 798.07 1678.97 769.391 1829.57 722.205C1980.16 675.019 2064.94 703.712 2215.49 656.539" stroke="#062949" stroke-width="1.2" stroke-miterlimit="10"/>
<path d="M-647.888 864.195C-497.336 817.023 -582.159 788.343 -431.607 741.171C-281.055 693.999 -196.232 722.678 -45.7239 675.519C104.785 628.361 20.005 599.668 170.557 552.496C321.109 505.323 405.932 534.002 556.483 486.83C707.035 439.658 622.212 410.979 772.808 363.793C923.403 316.607 1008.18 345.3 1158.73 298.128" stroke="#062949" stroke-width="1.2" stroke-miterlimit="10"/>
<path d="M-110.561 1046.11C39.9906 998.934 -44.8324 970.255 105.719 923.082C256.271 875.91 341.094 904.589 491.603 857.43C642.111 810.272 557.332 781.579 707.884 734.407C858.435 687.234 943.258 715.914 1093.81 668.741C1244.36 621.569 1159.54 592.89 1310.13 545.704C1460.73 498.518 1545.51 527.211 1696.06 480.039" stroke="#062949" stroke-width="1.2" stroke-miterlimit="10"/>
<path d="M-1183.22 688.275C-1032.67 641.103 -1117.49 612.423 -966.941 565.251C-816.389 518.079 -731.566 546.758 -581.058 499.599C-430.549 452.441 -515.329 423.748 -364.777 376.576C-214.225 329.403 -129.402 358.083 21.1497 310.91C171.702 263.738 86.8786 235.059 237.474 187.873C388.069 140.687 472.849 169.38 623.401 122.208" stroke="#062949" stroke-width="1.2" stroke-miterlimit="10"/>
<path d="M132.208 1135.72C282.76 1088.54 197.937 1059.86 348.489 1012.69C499.041 965.52 583.864 994.199 734.372 947.04C884.881 899.882 800.101 871.189 950.653 824.017C1101.2 776.844 1186.03 805.523 1336.58 758.351C1487.13 711.179 1402.31 682.5 1552.9 635.314C1703.5 588.128 1788.28 616.821 1938.83 569.649" stroke="#062949" stroke-width="1.2" stroke-miterlimit="10"/>
<path d="M-922.777 778.016C-772.225 730.843 -857.048 702.164 -706.496 654.992C-555.944 607.82 -471.121 636.499 -320.613 589.34C-170.104 542.181 -254.884 513.489 -104.332 466.316C46.2201 419.144 131.043 447.823 281.595 400.651C432.147 353.479 347.324 324.8 497.919 277.614C648.514 230.428 733.294 259.121 883.846 211.948" stroke="#062949" stroke-width="1.2" stroke-miterlimit="10"/>
<path d="M-387.235 959.214C-236.683 912.042 -321.506 883.363 -170.954 836.191C-20.402 789.018 64.421 817.698 214.93 770.539C365.438 723.38 280.658 694.687 431.21 647.515C581.762 600.343 666.585 629.022 817.137 581.85C967.689 534.677 882.866 505.998 1033.46 458.812C1184.06 411.627 1268.84 440.319 1419.39 393.147" stroke="#062949" stroke-width="1.2" stroke-miterlimit="10"/>
<path d="M-1459.9 601.385C-1309.34 554.212 -1394.17 525.533 -1243.61 478.361C-1093.06 431.189 -1008.24 459.868 -857.731 412.709C-707.223 365.551 -792.003 336.858 -641.451 289.686C-490.899 242.513 -406.076 271.192 -255.524 224.02C-104.972 176.848 -189.795 148.169 -39.1999 100.983C111.395 53.797 196.175 82.4897 346.727 35.3175" stroke="#062949" stroke-width="1.2" stroke-miterlimit="10"/>
<path d="M499.346 1256.23C649.898 1209.06 565.075 1180.38 715.627 1133.21C866.179 1086.03 951.002 1114.71 1101.51 1067.55C1252.02 1020.39 1167.24 991.701 1317.79 944.528C1468.34 897.356 1553.17 926.035 1703.72 878.862C1854.27 831.69 1769.45 803.01 1920.04 755.824C2070.64 708.638 2155.42 737.331 2305.97 690.158" stroke="#062949" stroke-width="1.2" stroke-miterlimit="10"/>
<path d="M-557.416 897.819C-406.864 850.647 -491.687 821.967 -341.135 774.795C-190.583 727.623 -105.76 756.302 44.7481 709.143C195.257 661.985 110.477 633.292 261.029 586.12C411.581 538.947 496.404 567.627 646.956 520.454C797.507 473.282 712.684 444.603 863.28 397.417C1013.87 350.231 1098.65 378.924 1249.21 331.752" stroke="#062949" stroke-width="1.2" stroke-miterlimit="10"/>
<path d="M-37.7648 1079.6C112.787 1032.43 27.9641 1003.75 178.516 956.575C329.068 909.403 413.891 938.082 564.399 890.923C714.908 843.765 630.128 815.072 780.68 767.9C931.232 720.727 1016.05 749.407 1166.61 702.234C1317.16 655.062 1232.34 626.383 1382.93 579.197C1533.53 532.011 1618.31 560.704 1768.86 513.532" stroke="#062949" stroke-width="1.2" stroke-miterlimit="10"/>
<path d="M-1092.75 721.899C-942.194 674.727 -1027.02 646.048 -876.465 598.875C-725.913 551.703 -641.09 580.382 -490.582 533.223C-340.073 486.065 -424.853 457.372 -274.301 410.2C-123.749 363.027 -38.9262 391.707 111.626 344.534C262.178 297.362 177.355 268.683 327.95 221.497C478.545 174.311 563.325 203.004 713.876 155.832" stroke="#062949" stroke-width="1.2" stroke-miterlimit="10"/>
<path d="M222.677 1169.34C373.228 1122.17 288.405 1093.49 438.957 1046.32C589.509 999.143 674.332 1027.82 824.841 980.664C975.349 933.505 890.57 904.812 1041.12 857.64C1191.67 810.468 1276.5 839.147 1427.05 791.974C1577.6 744.802 1492.78 716.123 1643.37 668.937C1793.97 621.751 1878.75 650.444 2029.3 603.272" stroke="#062949" stroke-width="1.2" stroke-miterlimit="10"/>
<path d="M-834.085 810.929C-683.533 763.756 -768.356 735.077 -617.804 687.905C-467.253 640.733 -382.43 669.412 -231.921 622.253C-81.4124 575.094 -166.192 546.402 -15.6403 499.229C134.912 452.057 219.735 480.736 370.286 433.564C520.838 386.392 436.015 357.713 586.61 310.527C737.206 263.341 821.985 292.034 972.537 244.861" stroke="#062949" stroke-width="1.2" stroke-miterlimit="10"/>
<path d="M-296.758 992.838C-146.206 945.666 -231.029 916.987 -80.4776 869.815C70.0743 822.642 154.897 851.322 305.406 804.163C455.914 757.004 371.135 728.311 521.687 681.139C672.238 633.967 757.061 662.646 907.613 615.474C1058.17 568.301 973.342 539.622 1123.94 492.436C1274.53 445.251 1359.31 473.943 1509.86 426.771" stroke="#062949" stroke-width="1.2" stroke-miterlimit="10"/>
<path d="M-1369.42 635.009C-1218.87 587.837 -1303.69 559.158 -1153.14 511.986C-1002.59 464.813 -917.767 493.492 -767.259 446.334C-616.75 399.175 -701.53 370.482 -550.978 323.31C-400.426 276.138 -315.603 304.817 -165.052 257.645C-14.4997 210.472 -99.3226 181.793 51.2725 134.607C201.868 87.4215 286.647 116.114 437.199 68.942" stroke="#062949" stroke-width="1.2" stroke-miterlimit="10"/>
<path d="M317.438 1196.18C467.989 1149.01 383.166 1120.33 533.718 1073.15C684.27 1025.98 769.093 1054.66 919.602 1007.5C1070.11 960.343 985.331 931.651 1135.88 884.478C1286.43 837.306 1371.26 865.985 1521.81 818.813C1672.36 771.641 1587.54 742.961 1738.13 695.776C1888.73 648.59 1973.51 677.282 2124.06 630.11" stroke="#062949" stroke-width="1.2" stroke-miterlimit="10"/>
<path d="M-739.313 837.766C-588.761 790.593 -673.584 761.914 -523.032 714.742C-372.48 667.57 -287.657 696.249 -137.149 649.09C13.36 601.931 -71.4197 573.239 79.1321 526.066C229.684 478.894 314.507 507.573 465.059 460.401C615.611 413.229 530.788 384.55 681.383 337.364C831.978 290.178 916.758 318.871 1067.31 271.698" stroke="#062949" stroke-width="1.2" stroke-miterlimit="10"/>
<path d="M-201.99 1019.68C-51.438 972.504 -136.261 943.825 14.2909 896.653C164.843 849.481 249.666 878.16 400.174 831.001C550.683 783.842 465.903 755.15 616.455 707.977C767.007 660.805 851.83 689.484 1002.38 642.312C1152.93 595.14 1068.11 566.46 1218.71 519.275C1369.3 472.089 1454.08 500.781 1604.63 453.609" stroke="#062949" stroke-width="1.2" stroke-miterlimit="10"/>
<path d="M-1274.65 661.847C-1124.1 614.675 -1208.92 585.996 -1058.37 538.823C-907.818 491.651 -822.995 520.33 -672.487 473.172C-521.978 426.013 -606.758 397.32 -456.206 350.148C-305.654 302.976 -220.831 331.655 -70.2791 284.483C80.2727 237.31 -4.55022 208.631 146.045 161.445C296.64 114.259 381.42 142.952 531.972 95.7799" stroke="#062949" stroke-width="1.2" stroke-miterlimit="10"/>
<path d="M40.7755 1109.29C191.327 1062.11 106.504 1033.44 257.056 986.263C407.608 939.091 492.431 967.77 642.94 920.611C793.448 873.452 708.669 844.76 859.22 797.587C1009.77 750.415 1094.6 779.094 1245.15 731.922C1395.7 684.75 1310.88 656.071 1461.47 608.885C1612.07 561.699 1696.85 590.392 1847.4 543.219" stroke="#062949" stroke-width="1.2" stroke-miterlimit="10"/>
<path d="M-1014.21 751.586C-863.654 704.414 -948.477 675.735 -797.925 628.563C-647.373 581.39 -562.55 610.07 -412.041 562.911C-261.533 515.752 -346.313 487.059 -195.761 439.887C-45.2088 392.715 39.6141 421.394 190.166 374.222C340.718 327.05 255.895 298.37 406.49 251.185C557.085 203.999 641.865 232.691 792.417 185.519" stroke="#062949" stroke-width="1.2" stroke-miterlimit="10"/>
<path d="M-478.659 932.785C-328.108 885.612 -412.931 856.933 -262.379 809.761C-111.827 762.589 -27.0039 791.268 123.505 744.109C274.013 696.95 189.234 668.258 339.785 621.085C490.337 573.913 575.16 602.592 725.712 555.42C876.264 508.248 791.441 479.569 942.036 432.383C1092.63 385.197 1177.41 413.89 1327.96 366.717" stroke="#062949" stroke-width="1.2" stroke-miterlimit="10"/>
<path d="M-1551.34 574.958C-1400.79 527.786 -1485.61 499.107 -1335.06 451.935C-1184.51 404.763 -1099.69 433.442 -949.18 386.283C-798.671 339.124 -883.451 310.432 -732.899 263.259C-582.347 216.087 -497.524 244.766 -346.972 197.594C-196.42 150.422 -281.243 121.742 -130.648 74.5566C19.9471 27.3707 104.727 56.0635 255.279 8.89118" stroke="#062949" stroke-width="1.2" stroke-miterlimit="10"/>
<path d="M-254.347 1007.18C-103.796 960.004 -188.619 931.325 -38.0667 884.153C112.485 836.981 197.308 865.66 347.817 818.501C498.325 771.343 413.546 742.65 564.097 695.478C714.649 648.305 799.472 676.984 950.024 629.812C1100.58 582.64 1015.75 553.961 1166.35 506.775C1316.94 459.589 1401.72 488.282 1552.27 441.109" stroke="#062949" stroke-width="1.2" stroke-miterlimit="10"/>
<path d="M541.753 1270.57C692.305 1223.4 607.482 1194.72 758.034 1147.55C908.586 1100.37 993.409 1129.05 1143.92 1081.89C1294.43 1034.73 1209.65 1006.04 1360.2 958.868C1510.75 911.695 1595.57 940.375 1746.12 893.202C1896.68 846.03 1811.85 817.35 1962.45 770.164C2113.04 722.978 2197.82 751.671 2348.37 704.498" stroke="#062949" stroke-width="1.2" stroke-miterlimit="10"/>
<path d="M-515.001 912.158C-364.449 864.986 -449.272 836.307 -298.72 789.135C-148.168 741.962 -63.3454 770.641 87.1632 723.483C237.672 676.324 152.892 647.631 303.444 600.459C453.996 553.287 538.819 581.966 689.371 534.794C839.922 487.621 755.099 458.942 905.695 411.756C1056.29 364.57 1141.07 393.263 1291.62 346.091" stroke="#062949" stroke-width="1.2" stroke-miterlimit="10"/>
<path d="M4.64636 1093.94C155.198 1046.77 70.3752 1018.09 220.927 970.916C371.479 923.744 456.302 952.423 606.811 905.264C757.319 858.105 672.539 829.413 823.091 782.24C973.643 735.068 1058.47 763.747 1209.02 716.575C1359.57 669.403 1274.75 640.724 1425.34 593.538C1575.94 546.352 1660.72 575.045 1811.27 527.872" stroke="#062949" stroke-width="1.2" stroke-miterlimit="10"/>
<path d="M-1050.33 736.238C-899.783 689.066 -984.606 660.386 -834.054 613.214C-683.502 566.042 -598.679 594.721 -448.171 547.562C-297.662 500.404 -382.442 471.711 -231.89 424.539C-81.338 377.366 3.48496 406.045 154.037 358.873C304.589 311.701 219.766 283.022 370.361 235.836C520.956 188.65 605.736 217.343 756.288 170.17" stroke="#062949" stroke-width="1.2" stroke-miterlimit="10"/>
<path d="M265.088 1183.68C415.64 1136.51 330.817 1107.83 481.368 1060.66C631.92 1013.48 716.743 1042.16 867.252 995.004C1017.76 947.845 932.981 919.152 1083.53 871.98C1234.08 824.808 1318.91 853.487 1469.46 806.315C1620.01 759.143 1535.19 730.463 1685.78 683.278C1836.38 636.092 1921.16 664.784 2071.71 617.612" stroke="#062949" stroke-width="1.2" stroke-miterlimit="10"/>
<path d="M-791.674 825.269C-641.123 778.096 -725.946 749.417 -575.394 702.245C-424.842 655.073 -340.019 683.752 -189.51 636.593C-39.0017 589.434 -123.781 560.742 26.7704 513.569C177.322 466.397 262.145 495.076 412.697 447.904C563.249 400.732 478.426 372.053 629.021 324.867C779.616 277.681 864.396 306.374 1014.95 259.201" stroke="#062949" stroke-width="1.2" stroke-miterlimit="10"/>
<path d="M451.285 1236.95C601.837 1189.77 517.014 1161.09 667.566 1113.92C818.117 1066.75 902.94 1095.43 1053.45 1048.27C1203.96 1001.11 1119.18 972.418 1269.73 925.245C1420.28 878.072 1505.1 906.752 1655.66 859.579C1806.21 812.406 1721.38 783.727 1871.98 736.541C2022.57 689.354 2107.35 718.047 2257.91 670.875" stroke="#062949" stroke-width="1.2" stroke-miterlimit="10"/>
<path d="M-605.481 878.535C-454.929 831.363 -539.752 802.684 -389.2 755.511C-238.648 708.339 -153.825 737.018 -3.31686 689.86C147.192 642.701 62.412 614.008 212.964 566.836C363.516 519.664 448.339 548.343 598.891 501.171C749.442 453.998 664.619 425.319 815.215 378.133C965.81 330.947 1050.59 359.64 1201.14 312.468" stroke="#062949" stroke-width="1.2" stroke-miterlimit="10"/>
<path d="M-68.1501 1060.45C82.4017 1013.27 -2.42129 984.594 148.131 937.422C298.682 890.25 383.505 918.929 534.014 871.77C684.523 824.611 599.743 795.919 750.295 748.746C900.847 701.574 985.67 730.253 1136.22 683.081C1286.77 635.909 1201.95 607.23 1352.55 560.044C1503.14 512.858 1587.92 541.551 1738.47 494.378" stroke="#062949" stroke-width="1.2" stroke-miterlimit="10"/>
<path d="M-1140.81 702.615C-990.259 655.443 -1075.08 626.764 -924.53 579.592C-773.978 532.419 -689.155 561.098 -538.647 513.94C-388.138 466.781 -472.918 438.088 -322.366 390.916C-171.814 343.744 -86.9912 372.423 63.5606 325.251C214.113 278.078 129.29 249.399 279.885 202.213C430.48 155.027 515.26 183.72 665.811 136.548" stroke="#062949" stroke-width="1.2" stroke-miterlimit="10"/>
<path d="M174.612 1150.06C325.164 1102.88 240.341 1074.21 390.892 1027.03C541.444 979.861 626.267 1008.54 776.776 961.382C927.284 914.223 842.505 885.53 993.057 838.358C1143.61 791.186 1228.43 819.865 1378.98 772.693C1529.54 725.52 1444.71 696.841 1595.31 649.655C1745.9 602.469 1830.68 631.162 1981.23 583.99" stroke="#062949" stroke-width="1.2" stroke-miterlimit="10"/>
<path d="M-880.365 792.354C-729.813 745.182 -814.636 716.503 -664.085 669.331C-513.533 622.159 -428.71 650.838 -278.201 603.679C-127.693 556.52 -212.472 527.828 -61.9204 480.655C88.6315 433.483 173.454 462.162 324.006 414.99C474.558 367.818 389.735 339.138 540.33 291.953C690.926 244.767 775.705 273.459 926.257 226.287" stroke="#062949" stroke-width="1.2" stroke-miterlimit="10"/>
<path d="M-344.823 973.555C-194.272 926.383 -279.095 897.704 -128.543 850.531C22.0092 803.359 106.832 832.038 257.341 784.88C407.849 737.721 323.07 709.028 473.622 661.856C624.173 614.684 708.996 643.363 859.548 596.191C1010.1 549.018 925.277 520.339 1075.87 473.153C1226.47 425.967 1311.25 454.66 1461.8 407.488" stroke="#062949" stroke-width="1.2" stroke-miterlimit="10"/>
<path d="M-1417.51 615.726C-1266.96 568.553 -1351.78 539.874 -1201.23 492.702C-1050.67 445.53 -965.852 474.209 -815.343 427.05C-664.835 379.891 -749.614 351.199 -599.062 304.026C-448.511 256.854 -363.688 285.533 -213.136 238.361C-62.5839 191.189 -147.407 162.51 3.18828 115.324C153.783 68.1378 238.563 96.8305 389.115 49.6583" stroke="#062949" stroke-width="1.2" stroke-miterlimit="10"/>
</g>
</svg>
